# xmcd
#
# Track frame offsets:
#	150
#	18417
#	35750
#	56402
#	73711
#	91661
#	112256
#	129937
#	149542
#	166312
#	193145
#	211837
#	225351
#	240734
#	260641
#	276929
#
# Disc length: 3972 seconds
#
# Revision: 1
# Processed by: cddbd v1.4PL0 Copyright (c) Steve Scherf et al.
# Submitted via: EasyCDDAExtractor 5.0.6
#
DISCID=e80f8210
DTITLE=Aaliyah
DYEAR=2001
DGENRE=R&B
TTITLE0=We Need A Resolution
TTITLE1=Loose Rap
TTITLE2=Rock The Boat
TTITLE3=More Than A Woman
TTITLE4=Never No More
TTITLE5=I Care 4 U
TTITLE6=Extra Smooth
TTITLE7=Read Between The Lines
TTITLE8=U Got Nerve
TTITLE9=I Refuse
TTITLE10=It's Whatever
TTITLE11=I Can Be
TTITLE12=Those Were The Days
TTITLE13=What If
TTITLE14=(Hidden Track) Messed Up
TTITLE15=(Bonus Track) Try Again
EXTD=
EXTT0=
EXTT1=
EXTT2=
EXTT3=
EXTT4=
EXTT5=
EXTT6=
EXTT7=
EXTT8=
EXTT9=
EXTT10=
EXTT11=
EXTT12=
EXTT13=
EXTT14=
EXTT15=
PLAYORDER=
